<?xml version="1.0" encoding="utf-8"?>
<!-- Generator: Adobe Illustrator 21.0.2, SVG Export Plug-In . SVG Version: 6.00 Build 0)  -->
<svg version="1.1" id="Capa_1" xmlns="http://www.w3.org/2000/svg" xmlns:xlink="http://www.w3.org/1999/xlink" x="0px" y="0px"
	 viewBox="0 0 267.9 72.3" style="enable-background:new 0 0 267.9 72.3;" xml:space="preserve">
<style type="text/css">
	.st0{fill:#00B8DE;}
</style>
<g>
	<g>
		<path d="M27.3,46.5h-11C4.1,46.5,4.4,56.6,4.4,56.6c0,0.1-0.5,10.1,11.6,10.1c11.3,0,11.3-10.1,11.3-10.1V46.5z M31.2,39.4v17.2
			c0,0,0,14-15.2,14c-15.9,0-15.4-14-15.4-14S0.2,42.7,16.3,42.7h11v-3.3C27.4,35.9,26.8,27,16,27c-5.6,0-10.5,3.4-10.8,10.2
			C5.1,37.9,4.5,39.1,3,39c-1.4-0.2-1.6-1.3-1.6-2c0-7.7,5.6-13.9,14.7-13.9C28.9,23.2,31.4,33.2,31.2,39.4"/>
		<path d="M76.6,37.7v30.6c0,0.1-0.1,1.8-1.9,1.8c-1.8,0-2-1.7-2-1.8V37.7C72.7,34.3,70.6,27,62,27c-7.2,0-11.7,4.6-11.7,11.6v29.6
			c0,0.2,0,1.9-1.8,1.9c-1.8,0-2-1.7-2-1.8v-61c0-0.8,0.5-1.9,1.8-1.9c1.5,0,2,1.1,2,1.9v21.5c0,0.1,2.6-5.7,11.7-5.7
			C73.7,23.2,76.6,32.7,76.6,37.7"/>
		<path d="M105.5,66.7c10.9,0,10.9-10.3,10.9-10.3V37.6c0,0,0-10.6-10.9-10.6c-11.3,0-11.3,10.6-11.3,10.6v18.9
			C94.2,56.4,94.2,66.7,105.5,66.7 M90.3,56.4V37.6c0,0,0-14.4,15.2-14.4c14.9,0,14.9,14.4,14.9,14.4v18.9c0,0,0,14.2-14.9,14.2
			C90.3,70.7,90.3,56.4,90.3,56.4"/>
		<path d="M85.4,11.2c-0.6,0-1.2-0.3-1.6-0.8c-0.6-0.9-0.5-2.1,0.4-2.8c6-4.4,13.1-6.6,21.1-6.6c8.2,0,15.3,2.1,21.3,6.2
			c0.9,0.6,1.1,1.9,0.5,2.8c-0.6,0.9-1.9,1.1-2.8,0.5C119.1,6.8,112.6,5,105.3,5c-7.2,0-13.5,2-18.8,5.8
			C86.2,11,85.8,11.2,85.4,11.2"/>
		<path d="M119.7,18.6c-0.4,0-0.8-0.1-1.1-0.3c-3.8-2.5-8.2-3.8-13.2-3.8c-5.2,0-9.6,1.3-13.3,3.8c-0.9,0.6-2.1,0.4-2.8-0.5
			c-0.6-0.9-0.4-2.1,0.5-2.8c4.3-3,9.6-4.5,15.5-4.5c5.8,0,11.1,1.5,15.5,4.5c0.9,0.6,1.2,1.9,0.5,2.8
			C121,18.3,120.3,18.6,119.7,18.6"/>
	</g>
	<g>
		<path class="st0" d="M172,67.6c0,3.8-4.1,3.7-4.1,3.7h-22.6c-1.6,0-2.6-1.4-2.6-2.9v-60c0,0,0.1-3.6,3.6-3.6
			c3.8,0,3.7,3.6,3.7,3.6v55.7h17.9C167.9,64.1,172,64.1,172,67.6"/>
		<path class="st0" d="M209.8,42.8V20c0,0,0-8.9-10.2-8.9c-10.2,0-10.2,9-10.2,9v22.7H209.8z M217.1,67.8c0,0.7-0.4,3.5-3.4,3.5
			c-3.6,0-3.9-3.3-3.9-3.5V50.1h-20.3h-0.1v17.8c0,0.5-0.5,3.5-3.6,3.5c-3.2,0-3.6-2.8-3.6-3.5V20.1c0,0,0-16.3,17.4-16.3
			c17.5,0,17.5,16.3,17.5,16.3V67.8z"/>
		<path class="st0" d="M249.8,64.4c10.3,0,10.3-8.8,10.3-8.8V50c0.1-9-9.6-10-9.9-9.9h-10.6v24.3H249.8z M239.6,32.8h10.3
			c0,0,8.4-0.7,8.3-11.4c0-9.8-8.4-9.8-8.4-9.8h-10.2V32.8z M267.3,55.6c0,0-0.1,15.7-17.5,15.7H236c-2.4,0-3.6-1.5-3.6-3.4V7.9
			c0-1.4,0.9-3.1,3.5-3.1h13.9c0.8,0,15.7,0,15.7,16.7c0,6-2.1,12.3-7.1,14.6c4.5,1.5,8.9,6.2,8.9,14.9V55.6z"/>
	</g>
</g>
</svg>
